<svg width="113" height="93" viewBox="0 0 113 93" fill="none" xmlns="http://www.w3.org/2000/svg">
<path fill-rule="evenodd" clip-rule="evenodd" d="M0.0700073 5.22049L4.83591 0.45459L8.37144 3.99012L3.60554 8.75602L0.0700073 5.22049ZM0.0700073 26.0701L4.83591 21.3042L8.37144 24.8397L3.60554 29.6056L0.0700073 26.0701ZM4.83591 42.1523L0.0700073 46.9182L3.60554 50.4538L8.37144 45.6879L4.83591 42.1523ZM0.0700073 67.7683L4.83591 63.0024L8.37144 66.538L3.60554 71.3039L0.0700073 67.7683ZM4.83591 83.8521L0.0700073 88.618L3.60554 92.1535L8.37144 87.3876L4.83591 83.8521ZM26.1325 5.22049L30.8984 0.45459L34.4339 3.99012L29.668 8.75602L26.1325 5.22049ZM30.8984 21.3042L26.1325 26.0701L29.668 29.6056L34.4339 24.8397L30.8984 21.3042ZM26.1325 46.9182L30.8984 42.1523L34.4339 45.6879L29.668 50.4538L26.1325 46.9182ZM30.8984 63.0024L26.1325 67.7683L29.668 71.3039L34.4339 66.538L30.8984 63.0024ZM26.1325 88.618L30.8984 83.8521L34.4339 87.3876L29.668 92.1535L26.1325 88.618ZM56.9609 0.45459L52.195 5.22049L55.7305 8.75602L60.4964 3.99012L56.9609 0.45459ZM52.1931 26.0701L56.959 21.3042L60.4945 24.8397L55.7286 29.6056L52.1931 26.0701ZM56.959 42.1523L52.1931 46.9182L55.7286 50.4538L60.4945 45.6879L56.959 42.1523ZM52.195 67.7683L56.9609 63.0024L60.4964 66.538L55.7305 71.3039L52.195 67.7683ZM56.9609 83.8521L52.195 88.618L55.7305 92.1535L60.4964 87.3876L56.9609 83.8521ZM78.2536 5.22049L83.0195 0.45459L86.555 3.99012L81.7891 8.75602L78.2536 5.22049ZM83.0195 21.3042L78.2536 26.0701L81.7891 29.6056L86.555 24.8397L83.0195 21.3042ZM78.2536 46.9182L83.0195 42.1523L86.555 45.6879L81.7891 50.4538L78.2536 46.9182ZM83.0195 63.0024L78.2536 67.7683L81.7891 71.3039L86.555 66.538L83.0195 63.0024ZM78.2536 88.618L83.0195 83.8521L86.555 87.3876L81.7891 92.1535L78.2536 88.618ZM109.08 0.45459L104.314 5.22049L107.85 8.75602L112.616 3.99012L109.08 0.45459ZM104.314 26.0701L109.08 21.3042L112.616 24.8397L107.85 29.6056L104.314 26.0701ZM109.08 42.1523L104.314 46.9182L107.85 50.4538L112.616 45.6879L109.08 42.1523ZM104.314 67.7683L109.08 63.0024L112.616 66.538L107.85 71.3039L104.314 67.7683ZM109.08 83.8521L104.314 88.618L107.85 92.1535L112.616 87.3876L109.08 83.8521Z" fill="#003559"/>
</svg>
