<svg width="115" height="94" viewBox="0 0 115 94" fill="none" xmlns="http://www.w3.org/2000/svg">
<path fill-rule="evenodd" clip-rule="evenodd" d="M0.00122052 6.38398L6.36518 0.0200195L9.90071 3.55555L3.53675 9.91951L0.00122052 6.38398ZM-0.000732422 27.2336L6.36323 20.8696L9.89876 24.4052L3.5348 30.7691L-0.000732422 27.2336ZM6.36518 41.7183L0.00122052 48.0822L3.53675 51.6178L9.90071 45.2538L6.36518 41.7183ZM0.00122052 68.9318L6.36518 62.5679L9.90071 66.1034L3.53675 72.4674L0.00122052 68.9318ZM6.36518 83.4175L0.00122052 89.7814L3.53675 93.317L9.90071 86.953L6.36518 83.4175ZM26.0618 6.38398L32.4257 0.0200195L35.9613 3.55555L29.5973 9.91951L26.0618 6.38398ZM32.4257 20.8696L26.0618 27.2336L29.5973 30.7691L35.9613 24.4052L32.4257 20.8696ZM26.0637 48.0822L32.4277 41.7183L35.9632 45.2538L29.5993 51.6178L26.0637 48.0822ZM32.4257 62.5679L26.0618 68.9318L29.5973 72.4674L35.9613 66.1034L32.4257 62.5679ZM26.0637 89.7814L32.4277 83.4175L35.9632 86.953L29.5993 93.317L26.0637 89.7814ZM58.4902 0.0200195L52.1262 6.38398L55.6618 9.91951L62.0257 3.55555L58.4902 0.0200195ZM52.1262 27.2336L58.4902 20.8696L62.0257 24.4052L55.6618 30.7691L52.1262 27.2336ZM58.4882 41.7183L52.1243 48.0822L55.6598 51.6178L62.0238 45.2538L58.4882 41.7183ZM52.1262 68.9318L58.4902 62.5679L62.0257 66.1034L55.6618 72.4674L52.1262 68.9318ZM58.4902 83.4175L52.1262 89.7814L55.6618 93.317L62.0257 86.953L58.4902 83.4175ZM78.1829 6.38398L84.5468 0.0200195L88.0824 3.55555L81.7184 9.91951L78.1829 6.38398ZM84.5488 20.8696L78.1848 27.2336L81.7203 30.7691L88.0843 24.4052L84.5488 20.8696ZM78.1829 48.0822L84.5468 41.7183L88.0824 45.2538L81.7184 51.6178L78.1829 48.0822ZM84.5488 62.5679L78.1848 68.9318L81.7203 72.4674L88.0843 66.1034L84.5488 62.5679ZM78.1848 89.7814L84.5488 83.4175L88.0843 86.953L81.7203 93.317L78.1848 89.7814ZM110.609 0.0200195L104.245 6.38398L107.781 9.91951L114.145 3.55555L110.609 0.0200195ZM104.245 27.2336L110.609 20.8696L114.145 24.4052L107.781 30.7691L104.245 27.2336ZM110.609 41.7183L104.245 48.0822L107.781 51.6178L114.145 45.2538L110.609 41.7183ZM104.245 68.9318L110.609 62.5679L114.145 66.1034L107.781 72.4674L104.245 68.9318ZM110.609 83.4175L104.245 89.7814L107.781 93.317L114.145 86.953L110.609 83.4175Z" fill="#003559"/>
</svg>
