<svg width="86" height="88" viewBox="0 0 86 88" fill="none" xmlns="http://www.w3.org/2000/svg">
<path d="M2.95881 2L0.00146484 4.96471M2.95881 22.2588L0.00146484 25.2235M2.95881 42.5176L0.00146484 45.4824M2.95881 62.7765L0.00146484 65.7412M2.95881 83.0353L0.00146484 86M23.1673 2L20.21 4.96471M23.1673 22.2588L20.21 25.2235M23.1673 42.5176L20.21 45.4824M23.1673 62.7765L20.21 65.7412M23.1673 83.0353L20.21 86M43.3759 2L40.4185 4.96471M43.3759 22.2588L40.4185 25.2235M43.3759 42.5176L40.4185 45.4824M43.3759 62.7765L40.4185 65.7412M43.3759 83.0353L40.4185 86M63.5844 2L60.6271 4.96471M63.5844 22.2588L60.6271 25.2235M63.5844 42.5176L60.6271 45.4824M63.5844 62.7765L60.6271 65.7412M63.5844 83.0353L60.6271 86M83.7929 2L80.8356 4.96471M83.7929 22.2588L80.8356 25.2235M83.7929 42.5176L80.8356 45.4824M83.7929 62.7765L80.8356 65.7412M83.7929 83.0353L80.8356 86" stroke="#003559" stroke-width="5"/>
</svg>
