<svg width="111" height="111" viewBox="0 0 111 111" fill="none" xmlns="http://www.w3.org/2000/svg">
<path d="M5.62562 2L1.84363 5.77647M5.62562 27.8059L1.84363 31.5824M5.62562 53.6118L1.84363 57.3882M5.62562 79.4176L1.84363 83.1941M5.62562 105.224L1.84363 109M31.4692 2L27.6872 5.77647M31.4692 27.8059L27.6872 31.5824M31.4692 53.6118L27.6872 57.3882M31.4692 79.4176L27.6872 83.1941M31.4692 105.224L27.6872 109M57.3128 2L53.5308 5.77647M57.3128 27.8059L53.5308 31.5824M57.3128 53.6118L53.5308 57.3882M57.3128 79.4176L53.5308 83.1941M57.3128 105.224L53.5308 109M83.1564 2L79.3744 5.77647M83.1564 27.8059L79.3744 31.5824M83.1564 53.6118L79.3744 57.3882M83.1564 79.4176L79.3744 83.1941M83.1564 105.224L79.3744 109M109 2L105.218 5.77647M109 27.8059L105.218 31.5824M109 53.6118L105.218 57.3882M109 79.4176L105.218 83.1941M109 105.224L105.218 109" stroke="#003559" stroke-width="5"/>
</svg>
