<svg width="28" height="31" viewBox="0 0 28 31" fill="none" xmlns="http://www.w3.org/2000/svg">
<path d="M14.1129 0.605469C18.1328 0.605469 21.4377 3.76433 21.6055 7.76695H21.5663C21.571 7.8833 21.5486 7.99916 21.5009 8.10547H21.7351C23.5607 8.10547 25.4722 9.37073 26.2387 12.4252L26.322 12.7856L27.4754 22.0776C28.3054 28.0041 25.0629 30.4964 20.6398 30.602L20.3432 30.6055H7.90826C3.41313 30.6055 -0.0507148 28.9674 0.71089 22.4808L0.762826 22.0776L1.92943 12.7856C2.50468 9.49625 4.43588 8.19884 6.29665 8.11036L6.50304 8.10547H6.6203C6.60052 7.99349 6.60052 7.87893 6.6203 7.76695C6.78805 3.76433 10.093 0.605469 14.1129 0.605469ZM9.75096 13.0994C9.01881 13.0994 8.42528 13.7103 8.42528 14.4639C8.42528 15.2174 9.01881 15.8283 9.75096 15.8283C10.4831 15.8283 11.0766 15.2174 11.0766 14.4639L11.0663 14.2927C10.9845 13.6199 10.4268 13.0994 9.75096 13.0994ZM18.4342 13.0994C17.702 13.0994 17.1085 13.7103 17.1085 14.4639C17.1085 15.2174 17.702 15.8283 18.4342 15.8283C19.1663 15.8283 19.7599 15.2174 19.7599 14.4639C19.7599 13.7103 19.1663 13.0994 18.4342 13.0994ZM14.0541 2.55905C11.1679 2.55905 8.82823 4.89071 8.82823 7.76695C8.848 7.87893 8.848 7.99349 8.82823 8.10547H19.3453C19.3035 7.99738 19.2814 7.88276 19.28 7.76695C19.28 4.89071 16.9403 2.55905 14.0541 2.55905Z" fill="white"/>
</svg>
