<svg width="28" height="28" viewBox="0 0 28 28" fill="none" xmlns="http://www.w3.org/2000/svg">
<path fill-rule="evenodd" clip-rule="evenodd" d="M20.6513 11.4142C20.6513 16.5157 16.5157 20.6513 11.4142 20.6513C6.31264 20.6513 2.17703 16.5157 2.17703 11.4142C2.17703 6.31264 6.31264 2.17703 11.4142 2.17703C16.5157 2.17703 20.6513 6.31264 20.6513 11.4142ZM18.3922 20.4477C16.4628 21.9402 14.0422 22.8284 11.4142 22.8284C5.11031 22.8284 0 17.7181 0 11.4142C0 5.11031 5.11031 0 11.4142 0C17.7181 0 22.8284 5.11031 22.8284 11.4142C22.8284 14.0437 21.9392 16.4656 20.4451 18.3955L27.9994 25.9498L25.9468 28.0023L18.3922 20.4477Z" fill="#003559"/>
</svg>
